<svg width="4273" height="1059" viewBox="0 0 4273 1059" fill="none" xmlns="http://www.w3.org/2000/svg">
<path d="M175.08 462V201.904L169.96 160.432H396.776C418.621 160.432 435.688 163.333 447.976 169.136C460.605 174.939 469.821 182.619 475.624 192.176C481.768 201.392 485.693 211.291 487.4 221.872C489.107 232.453 489.96 242.523 489.96 252.08V282.288C489.96 290.139 488.765 299.013 486.376 308.912C483.987 318.469 479.549 327.856 473.064 337.072C466.579 345.947 457.192 353.456 444.904 359.6C432.616 365.403 416.573 368.304 396.776 368.304H344.552C323.048 368.304 302.909 367.792 284.136 366.768C265.704 365.744 251.88 364.891 242.664 364.208V462H175.08ZM242.664 319.152H381.928C397.288 319.152 407.869 315.397 413.672 307.888C419.475 300.379 422.376 291.333 422.376 280.752V248.496C422.376 237.573 419.475 228.357 413.672 220.848C407.869 213.339 397.459 209.584 382.44 209.584H242.664V319.152Z" fill="#7482FF"/>
<path d="M185.08 472V211.904L179.96 170.432H406.776C428.621 170.432 445.688 173.333 457.976 179.136C470.605 184.939 479.821 192.619 485.624 202.176C491.768 211.392 495.693 221.291 497.4 231.872C499.107 242.453 499.96 252.523 499.96 262.08V292.288C499.96 300.139 498.765 309.013 496.376 318.912C493.987 328.469 489.549 337.856 483.064 347.072C476.579 355.947 467.192 363.456 454.904 369.6C442.616 375.403 426.573 378.304 406.776 378.304H354.552C333.048 378.304 312.909 377.792 294.136 376.768C275.704 375.744 261.88 374.891 252.664 374.208V472H185.08ZM252.664 329.152H391.928C407.288 329.152 417.869 325.397 423.672 317.888C429.475 310.379 432.376 301.333 432.376 290.752V258.496C432.376 247.573 429.475 238.357 423.672 230.848C417.869 223.339 407.459 219.584 392.44 219.584H252.664V329.152Z" fill="#85FF8F"/>
<path d="M195.08 482V221.904L189.96 180.432H416.776C438.621 180.432 455.688 183.333 467.976 189.136C480.605 194.939 489.821 202.619 495.624 212.176C501.768 221.392 505.693 231.291 507.4 241.872C509.107 252.453 509.96 262.523 509.96 272.08V302.288C509.96 310.139 508.765 319.013 506.376 328.912C503.987 338.469 499.549 347.856 493.064 357.072C486.579 365.947 477.192 373.456 464.904 379.6C452.616 385.403 436.573 388.304 416.776 388.304H364.552C343.048 388.304 322.909 387.792 304.136 386.768C285.704 385.744 271.88 384.891 262.664 384.208V482H195.08ZM262.664 339.152H401.928C417.288 339.152 427.869 335.397 433.672 327.888C439.475 320.379 442.376 311.333 442.376 300.752V268.496C442.376 257.573 439.475 248.357 433.672 240.848C427.869 233.339 417.459 229.584 402.44 229.584H262.664V339.152Z" fill="#680303"/>
<path d="M205.08 492V231.904L199.96 190.432H426.776C448.621 190.432 465.688 193.333 477.976 199.136C490.605 204.939 499.821 212.619 505.624 222.176C511.768 231.392 515.693 241.291 517.4 251.872C519.107 262.453 519.96 272.523 519.96 282.08V312.288C519.96 320.139 518.765 329.013 516.376 338.912C513.987 348.469 509.549 357.856 503.064 367.072C496.579 375.947 487.192 383.456 474.904 389.6C462.616 395.403 446.573 398.304 426.776 398.304H374.552C353.048 398.304 332.909 397.792 314.136 396.768C295.704 395.744 281.88 394.891 272.664 394.208V492H205.08ZM272.664 349.152H411.928C427.288 349.152 437.869 345.397 443.672 337.888C449.475 330.379 452.376 321.333 452.376 310.752V278.496C452.376 267.573 449.475 258.357 443.672 250.848C437.869 243.339 427.459 239.584 412.44 239.584H272.664V349.152Z" fill="#F95B5B"/>
<path d="M215.08 502V241.904L209.96 200.432H436.776C458.621 200.432 475.688 203.333 487.976 209.136C500.605 214.939 509.821 222.619 515.624 232.176C521.768 241.392 525.693 251.291 527.4 261.872C529.107 272.453 529.96 282.523 529.96 292.08V322.288C529.96 330.139 528.765 339.013 526.376 348.912C523.987 358.469 519.549 367.856 513.064 377.072C506.579 385.947 497.192 393.456 484.904 399.6C472.616 405.403 456.573 408.304 436.776 408.304H384.552C363.048 408.304 342.909 407.792 324.136 406.768C305.704 405.744 291.88 404.891 282.664 404.208V502H215.08ZM282.664 359.152H421.928C437.288 359.152 447.869 355.397 453.672 347.888C459.475 340.379 462.376 331.333 462.376 320.752V288.496C462.376 277.573 459.475 268.357 453.672 260.848C447.869 253.339 437.459 249.584 422.44 249.584H282.664V359.152Z" fill="#FCF8F8"/>
<path d="M677.112 462V337.072L528.12 160.944H610.04L685.816 256.688L709.368 288.432H714.488L738.04 256.688L813.816 160.944H895.736L875.768 191.664L744.696 339.12V462H677.112Z" fill="#7482FF"/>
<path d="M687.112 472V347.072L538.12 170.944H620.04L695.816 266.688L719.368 298.432H724.488L748.04 266.688L823.816 170.944H905.736L885.768 201.664L754.696 349.12V472H687.112Z" fill="#85FF8F"/>
<path d="M697.112 482V357.072L548.12 180.944H630.04L705.816 276.688L729.368 308.432H734.488L758.04 276.688L833.816 180.944H915.736L895.768 211.664L764.696 359.12V482H697.112Z" fill="#680303"/>
<path d="M707.112 492V367.072L558.12 190.944H640.04L715.816 286.688L739.368 318.432H744.488L768.04 286.688L843.816 190.944H925.736L905.768 221.664L774.696 369.12V492H707.112Z" fill="#F95B5B"/>
<path d="M717.112 502V377.072L568.12 200.944H650.04L725.816 296.688L749.368 328.432H754.488L778.04 296.688L853.816 200.944H935.736L915.768 231.664L784.696 379.12V502H717.112Z" fill="#FCF8F8"/>
<path d="M1001.08 462V201.904L995.96 160.944H1069.69L1243.77 343.216L1263.74 370.864H1269.37V160.944H1336.95V462H1271.93L1093.75 276.656L1073.78 252.592H1068.66V462H1001.08Z" fill="#7482FF"/>
<path d="M1011.08 472V211.904L1005.96 170.944H1079.69L1253.77 353.216L1273.74 380.864H1279.37V170.944H1346.95V472H1281.93L1103.75 286.656L1083.78 262.592H1078.66V472H1011.08Z" fill="#85FF8F"/>
<path d="M1021.08 482V221.904L1015.96 180.944H1089.69L1263.77 363.216L1283.74 390.864H1289.37V180.944H1356.95V482H1291.93L1113.75 296.656L1093.78 272.592H1088.66V482H1021.08Z" fill="#680303"/>
<path d="M1031.08 492V231.904L1025.96 190.944H1099.69L1273.77 373.216L1293.74 400.864H1299.37V190.944H1366.95V492H1301.93L1123.75 306.656L1103.78 282.592H1098.66V492H1031.08Z" fill="#F95B5B"/>
<path d="M1041.08 502V241.904L1035.96 200.944H1109.69L1283.77 383.216L1303.74 410.864H1309.37V200.944H1376.95V502H1311.93L1133.75 316.656L1113.78 292.592H1108.66V502H1041.08Z" fill="#FCF8F8"/>
<path d="M1521.54 462C1497.3 462 1478.36 458.587 1464.7 451.76C1451.05 444.933 1441.49 434.693 1436.03 421.04C1430.57 407.387 1427.84 390.491 1427.84 370.352V256.176C1427.84 223.408 1435.18 199.344 1449.86 183.984C1464.53 168.283 1488.43 160.432 1521.54 160.432H1675.65C1699.2 160.432 1717.12 161.797 1729.41 164.528C1742.04 166.917 1748.35 169.477 1748.35 172.208L1738.11 214.704C1732.31 213.68 1715.07 212.656 1686.4 211.632C1658.07 210.267 1616.77 209.584 1562.5 209.584H1536.38C1509.08 209.584 1495.42 221.701 1495.42 245.936V376.496C1495.42 388.101 1498.33 397.147 1504.13 403.632C1510.27 409.776 1521.02 412.848 1536.38 412.848H1557.38C1614.04 412.848 1657.9 412.336 1688.96 411.312C1720.36 409.947 1739.82 408.581 1747.33 407.216L1768.32 441.008C1768.32 442.715 1765.42 445.275 1759.62 448.688C1754.15 452.101 1743.91 455.173 1728.9 457.904C1713.88 460.635 1692.2 462 1663.87 462H1521.54Z" fill="#7482FF"/>
<path d="M1531.54 472C1507.3 472 1488.36 468.587 1474.7 461.76C1461.05 454.933 1451.49 444.693 1446.03 431.04C1440.57 417.387 1437.84 400.491 1437.84 380.352V266.176C1437.84 233.408 1445.18 209.344 1459.86 193.984C1474.53 178.283 1498.43 170.432 1531.54 170.432H1685.65C1709.2 170.432 1727.12 171.797 1739.41 174.528C1752.04 176.917 1758.35 179.477 1758.35 182.208L1748.11 224.704C1742.31 223.68 1725.07 222.656 1696.4 221.632C1668.07 220.267 1626.77 219.584 1572.5 219.584H1546.38C1519.08 219.584 1505.42 231.701 1505.42 255.936V386.496C1505.42 398.101 1508.33 407.147 1514.13 413.632C1520.27 419.776 1531.02 422.848 1546.38 422.848H1567.38C1624.04 422.848 1667.9 422.336 1698.96 421.312C1730.36 419.947 1749.82 418.581 1757.33 417.216L1778.32 451.008C1778.32 452.715 1775.42 455.275 1769.62 458.688C1764.15 462.101 1753.91 465.173 1738.9 467.904C1723.88 470.635 1702.2 472 1673.87 472H1531.54Z" fill="#85FF8F"/>
<path d="M1541.54 482C1517.3 482 1498.36 478.587 1484.7 471.76C1471.05 464.933 1461.49 454.693 1456.03 441.04C1450.57 427.387 1447.84 410.491 1447.84 390.352V276.176C1447.84 243.408 1455.18 219.344 1469.86 203.984C1484.53 188.283 1508.43 180.432 1541.54 180.432H1695.65C1719.2 180.432 1737.12 181.797 1749.41 184.528C1762.04 186.917 1768.35 189.477 1768.35 192.208L1758.11 234.704C1752.31 233.68 1735.07 232.656 1706.4 231.632C1678.07 230.267 1636.77 229.584 1582.5 229.584H1556.38C1529.08 229.584 1515.42 241.701 1515.42 265.936V396.496C1515.42 408.101 1518.33 417.147 1524.13 423.632C1530.27 429.776 1541.02 432.848 1556.38 432.848H1577.38C1634.04 432.848 1677.9 432.336 1708.96 431.312C1740.36 429.947 1759.82 428.581 1767.33 427.216L1788.32 461.008C1788.32 462.715 1785.42 465.275 1779.62 468.688C1774.15 472.101 1763.91 475.173 1748.9 477.904C1733.88 480.635 1712.2 482 1683.87 482H1541.54Z" fill="#680303"/>
<path d="M1551.54 492C1527.3 492 1508.36 488.587 1494.7 481.76C1481.05 474.933 1471.49 464.693 1466.03 451.04C1460.57 437.387 1457.84 420.491 1457.84 400.352V286.176C1457.84 253.408 1465.18 229.344 1479.86 213.984C1494.53 198.283 1518.43 190.432 1551.54 190.432H1705.65C1729.2 190.432 1747.12 191.797 1759.41 194.528C1772.04 196.917 1778.35 199.477 1778.35 202.208L1768.11 244.704C1762.31 243.68 1745.07 242.656 1716.4 241.632C1688.07 240.267 1646.77 239.584 1592.5 239.584H1566.38C1539.08 239.584 1525.42 251.701 1525.42 275.936V406.496C1525.42 418.101 1528.33 427.147 1534.13 433.632C1540.27 439.776 1551.02 442.848 1566.38 442.848H1587.38C1644.04 442.848 1687.9 442.336 1718.96 441.312C1750.36 439.947 1769.82 438.581 1777.33 437.216L1798.32 471.008C1798.32 472.715 1795.42 475.275 1789.62 478.688C1784.15 482.101 1773.91 485.173 1758.9 487.904C1743.88 490.635 1722.2 492 1693.87 492H1551.54Z" fill="#F95B5B"/>
<path d="M1561.54 502C1537.3 502 1518.36 498.587 1504.7 491.76C1491.05 484.933 1481.49 474.693 1476.03 461.04C1470.57 447.387 1467.84 430.491 1467.84 410.352V296.176C1467.84 263.408 1475.18 239.344 1489.86 223.984C1504.53 208.283 1528.43 200.432 1561.54 200.432H1715.65C1739.2 200.432 1757.12 201.797 1769.41 204.528C1782.04 206.917 1788.35 209.477 1788.35 212.208L1778.11 254.704C1772.31 253.68 1755.07 252.656 1726.4 251.632C1698.07 250.267 1656.77 249.584 1602.5 249.584H1576.38C1549.08 249.584 1535.42 261.701 1535.42 285.936V416.496C1535.42 428.101 1538.33 437.147 1544.13 443.632C1550.27 449.776 1561.02 452.848 1576.38 452.848H1597.38C1654.04 452.848 1697.9 452.336 1728.96 451.312C1760.36 449.947 1779.82 448.581 1787.33 447.216L1808.32 481.008C1808.32 482.715 1805.42 485.275 1799.62 488.688C1794.15 492.101 1783.91 495.173 1768.9 497.904C1753.88 500.635 1732.2 502 1703.87 502H1561.54Z" fill="#FCF8F8"/>
<path d="M1869.96 462V160.944H1937.54V285.872H2138.25V160.944H2205.83V462H2138.25V335.024H1937.54V462H1869.96Z" fill="#7482FF"/>
<path d="M1879.96 472V170.944H1947.54V295.872H2148.25V170.944H2215.83V472H2148.25V345.024H1947.54V472H1879.96Z" fill="#85FF8F"/>
<path d="M1889.96 482V180.944H1957.54V305.872H2158.25V180.944H2225.83V482H2158.25V355.024H1957.54V482H1889.96Z" fill="#680303"/>
<path d="M1899.96 492V190.944H1967.54V315.872H2168.25V190.944H2235.83V492H2168.25V365.024H1967.54V492H1899.96Z" fill="#F95B5B"/>
<path d="M1909.96 502V200.944H1977.54V325.872H2178.25V200.944H2245.83V502H2178.25V375.024H1977.54V502H1909.96Z" fill="#FCF8F8"/>
<path d="M2618.96 462L2624.08 421.04V160.944H2691.66V412.848H2903.63L2924.11 456.368C2924.11 457.733 2919.5 459.099 2910.29 460.464C2901.07 461.488 2885.2 462 2862.67 462H2618.96Z" fill="#7482FF"/>
<path d="M2628.96 472L2634.08 431.04V170.944H2701.66V422.848H2913.63L2934.11 466.368C2934.11 467.733 2929.5 469.099 2920.29 470.464C2911.07 471.488 2895.2 472 2872.67 472H2628.96Z" fill="#85FF8F"/>
<path d="M2638.96 482L2644.08 441.04V180.944H2711.66V432.848H2923.63L2944.11 476.368C2944.11 477.733 2939.5 479.099 2930.29 480.464C2921.07 481.488 2905.2 482 2882.67 482H2638.96Z" fill="#680303"/>
<path d="M2648.96 492L2654.08 451.04V190.944H2721.66V442.848H2933.63L2954.11 486.368C2954.11 487.733 2949.5 489.099 2940.29 490.464C2931.07 491.488 2915.2 492 2892.67 492H2648.96Z" fill="#F95B5B"/>
<path d="M2658.96 502L2664.08 461.04V200.944H2731.66V452.848H2943.63L2964.11 496.368C2964.11 497.733 2959.5 499.099 2950.29 500.464C2941.07 501.488 2925.2 502 2902.67 502H2658.96Z" fill="#FCF8F8"/>
<path d="M2972 462L3122.02 160.944H3222.88L3372.38 462H3293.54L3263.33 396.976H3080.03L3046.75 462H2972ZM3098.46 346.8H3244.38L3174.24 207.024H3169.12L3098.46 346.8Z" fill="#7482FF"/>
<path d="M2982 472L3132.02 170.944H3232.88L3382.38 472H3303.54L3273.33 406.976H3090.03L3056.75 472H2982ZM3108.46 356.8H3254.38L3184.24 217.024H3179.12L3108.46 356.8Z" fill="#85FF8F"/>
<path d="M2992 482L3142.02 180.944H3242.88L3392.38 482H3313.54L3283.33 416.976H3100.03L3066.75 482H2992ZM3118.46 366.8H3264.38L3194.24 227.024H3189.12L3118.46 366.8Z" fill="#680303"/>
<path d="M3002 492L3152.02 190.944H3252.88L3402.38 492H3323.54L3293.33 426.976H3110.03L3076.75 492H3002ZM3128.46 376.8H3274.38L3204.24 237.024H3199.12L3128.46 376.8Z" fill="#F95B5B"/>
<path d="M3012 502L3162.02 200.944H3262.88L3412.38 502H3333.54L3303.33 436.976H3120.03L3086.75 502H3012ZM3138.46 386.8H3284.38L3214.24 247.024H3209.12L3138.46 386.8Z" fill="#FCF8F8"/>
<path d="M3444.96 462V160.432H3667.68C3699.77 160.432 3723.15 166.917 3737.82 179.888C3752.5 192.517 3759.84 207.877 3759.84 225.968V241.328C3759.84 255.323 3756.77 266.928 3750.62 276.144C3744.82 285.019 3738.51 291.333 3731.68 295.088C3746.7 299.867 3758.65 308.229 3767.52 320.176C3776.39 331.781 3780.83 347.141 3780.83 366.256V375.472C3780.83 385.712 3779.64 395.952 3777.25 406.192C3774.86 416.432 3770.25 425.819 3763.42 434.352C3756.94 442.544 3747.55 449.2 3735.26 454.32C3723.32 459.44 3707.62 462 3688.16 462H3444.96ZM3512.54 281.264H3656.93C3668.87 281.605 3677.75 278.704 3683.55 272.56C3689.35 266.075 3692.26 258.053 3692.26 248.496V243.376C3692.26 235.525 3689.53 228.016 3684.06 220.848C3678.6 213.339 3668.36 209.584 3653.34 209.584H3512.54V281.264ZM3512.54 412.848H3673.82C3686.79 412.848 3696.52 409.605 3703.01 403.12C3709.83 396.635 3713.25 387.76 3713.25 376.496V367.28C3713.25 356.699 3709.32 348.165 3701.47 341.68C3693.62 334.853 3680.65 331.44 3662.56 331.44H3512.54V412.848Z" fill="#7482FF"/>
<path d="M3454.96 472V170.432H3677.68C3709.77 170.432 3733.15 176.917 3747.82 189.888C3762.5 202.517 3769.84 217.877 3769.84 235.968V251.328C3769.84 265.323 3766.77 276.928 3760.62 286.144C3754.82 295.019 3748.51 301.333 3741.68 305.088C3756.7 309.867 3768.65 318.229 3777.52 330.176C3786.39 341.781 3790.83 357.141 3790.83 376.256V385.472C3790.83 395.712 3789.64 405.952 3787.25 416.192C3784.86 426.432 3780.25 435.819 3773.42 444.352C3766.94 452.544 3757.55 459.2 3745.26 464.32C3733.32 469.44 3717.62 472 3698.16 472H3454.96ZM3522.54 291.264H3666.93C3678.87 291.605 3687.75 288.704 3693.55 282.56C3699.35 276.075 3702.26 268.053 3702.26 258.496V253.376C3702.26 245.525 3699.53 238.016 3694.06 230.848C3688.6 223.339 3678.36 219.584 3663.34 219.584H3522.54V291.264ZM3522.54 422.848H3683.82C3696.79 422.848 3706.52 419.605 3713.01 413.12C3719.83 406.635 3723.25 397.76 3723.25 386.496V377.28C3723.25 366.699 3719.32 358.165 3711.47 351.68C3703.62 344.853 3690.65 341.44 3672.56 341.44H3522.54V422.848Z" fill="#85FF8F"/>
<path d="M3464.96 482V180.432H3687.68C3719.77 180.432 3743.15 186.917 3757.82 199.888C3772.5 212.517 3779.84 227.877 3779.84 245.968V261.328C3779.84 275.323 3776.77 286.928 3770.62 296.144C3764.82 305.019 3758.51 311.333 3751.68 315.088C3766.7 319.867 3778.65 328.229 3787.52 340.176C3796.39 351.781 3800.83 367.141 3800.83 386.256V395.472C3800.83 405.712 3799.64 415.952 3797.25 426.192C3794.86 436.432 3790.25 445.819 3783.42 454.352C3776.94 462.544 3767.55 469.2 3755.26 474.32C3743.32 479.44 3727.62 482 3708.16 482H3464.96ZM3532.54 301.264H3676.93C3688.87 301.605 3697.75 298.704 3703.55 292.56C3709.35 286.075 3712.26 278.053 3712.26 268.496V263.376C3712.26 255.525 3709.53 248.016 3704.06 240.848C3698.6 233.339 3688.36 229.584 3673.34 229.584H3532.54V301.264ZM3532.54 432.848H3693.82C3706.79 432.848 3716.52 429.605 3723.01 423.12C3729.83 416.635 3733.25 407.76 3733.25 396.496V387.28C3733.25 376.699 3729.32 368.165 3721.47 361.68C3713.62 354.853 3700.65 351.44 3682.56 351.44H3532.54V432.848Z" fill="#680303"/>
<path d="M3474.96 492V190.432H3697.68C3729.77 190.432 3753.15 196.917 3767.82 209.888C3782.5 222.517 3789.84 237.877 3789.84 255.968V271.328C3789.84 285.323 3786.77 296.928 3780.62 306.144C3774.82 315.019 3768.51 321.333 3761.68 325.088C3776.7 329.867 3788.65 338.229 3797.52 350.176C3806.39 361.781 3810.83 377.141 3810.83 396.256V405.472C3810.83 415.712 3809.64 425.952 3807.25 436.192C3804.86 446.432 3800.25 455.819 3793.42 464.352C3786.94 472.544 3777.55 479.2 3765.26 484.32C3753.32 489.44 3737.62 492 3718.16 492H3474.96ZM3542.54 311.264H3686.93C3698.87 311.605 3707.75 308.704 3713.55 302.56C3719.35 296.075 3722.26 288.053 3722.26 278.496V273.376C3722.26 265.525 3719.53 258.016 3714.06 250.848C3708.6 243.339 3698.36 239.584 3683.34 239.584H3542.54V311.264ZM3542.54 442.848H3703.82C3716.79 442.848 3726.52 439.605 3733.01 433.12C3739.83 426.635 3743.25 417.76 3743.25 406.496V397.28C3743.25 386.699 3739.32 378.165 3731.47 371.68C3723.62 364.853 3710.65 361.44 3692.56 361.44H3542.54V442.848Z" fill="#F95B5B"/>
<path d="M3484.96 502V200.432H3707.68C3739.77 200.432 3763.15 206.917 3777.82 219.888C3792.5 232.517 3799.84 247.877 3799.84 265.968V281.328C3799.84 295.323 3796.77 306.928 3790.62 316.144C3784.82 325.019 3778.51 331.333 3771.68 335.088C3786.7 339.867 3798.65 348.229 3807.52 360.176C3816.39 371.781 3820.83 387.141 3820.83 406.256V415.472C3820.83 425.712 3819.64 435.952 3817.25 446.192C3814.86 456.432 3810.25 465.819 3803.42 474.352C3796.94 482.544 3787.55 489.2 3775.26 494.32C3763.32 499.44 3747.62 502 3728.16 502H3484.96ZM3552.54 321.264H3696.93C3708.87 321.605 3717.75 318.704 3723.55 312.56C3729.35 306.075 3732.26 298.053 3732.26 288.496V283.376C3732.26 275.525 3729.53 268.016 3724.06 260.848C3718.6 253.339 3708.36 249.584 3693.34 249.584H3552.54V321.264ZM3552.54 452.848H3713.82C3726.79 452.848 3736.52 449.605 3743.01 443.12C3749.83 436.635 3753.25 427.76 3753.25 416.496V407.28C3753.25 396.699 3749.32 388.165 3741.47 381.68C3733.62 374.853 3720.65 371.44 3702.56 371.44H3552.54V452.848Z" fill="#FCF8F8"/>
<path d="M3939.3 462C3916.09 462 3899.03 460.976 3888.1 458.928C3877.18 456.88 3871.72 454.491 3871.72 451.76L3892.2 407.216C3900.05 408.581 3919.51 409.947 3950.57 411.312C3981.97 412.336 4024.98 412.848 4079.59 412.848H4089.32C4104 412.848 4114.41 410.288 4120.55 405.168C4126.7 399.707 4129.77 390.661 4129.77 378.032V367.792C4129.77 355.845 4127.21 347.312 4122.09 342.192C4117.31 337.072 4106.39 334.512 4089.32 334.512H3970.54C3936.06 334.512 3910.97 328.197 3895.27 315.568C3879.57 302.597 3871.72 281.605 3871.72 252.592V244.4C3871.72 229.381 3874.45 215.557 3879.91 202.928C3885.71 190.299 3895.44 180.229 3909.1 172.72C3922.75 164.869 3941.52 160.944 3965.42 160.944H4104.68C4127.89 160.944 4146.66 162.139 4161 164.528C4175.34 166.917 4182.5 169.477 4182.5 172.208L4172.26 215.216C4163.39 214.192 4143.25 213.168 4111.85 212.144C4080.45 210.779 4038.29 210.096 3985.38 210.096L3979.75 209.584C3964.05 209.584 3953.47 212.827 3948.01 219.312C3942.55 225.456 3939.65 233.307 3939.3 242.864V251.568C3939.3 262.832 3942.38 271.365 3948.52 277.168C3955.01 282.629 3965.59 285.36 3980.26 285.36H4093.93C4115.77 285.36 4134.38 287.579 4149.74 292.016C4165.1 296.453 4176.87 304.645 4185.06 316.592C4193.26 328.197 4197.35 345.435 4197.35 368.304V376.496C4197.35 402.096 4190.7 422.747 4177.38 438.448C4164.41 454.149 4141.71 462 4109.29 462H3939.3Z" fill="#7482FF"/>
<path d="M3949.3 472C3926.09 472 3909.03 470.976 3898.1 468.928C3887.18 466.88 3881.72 464.491 3881.72 461.76L3902.2 417.216C3910.05 418.581 3929.51 419.947 3960.57 421.312C3991.97 422.336 4034.98 422.848 4089.59 422.848H4099.32C4114 422.848 4124.41 420.288 4130.55 415.168C4136.7 409.707 4139.77 400.661 4139.77 388.032V377.792C4139.77 365.845 4137.21 357.312 4132.09 352.192C4127.31 347.072 4116.39 344.512 4099.32 344.512H3980.54C3946.06 344.512 3920.97 338.197 3905.27 325.568C3889.57 312.597 3881.72 291.605 3881.72 262.592V254.4C3881.72 239.381 3884.45 225.557 3889.91 212.928C3895.71 200.299 3905.44 190.229 3919.1 182.72C3932.75 174.869 3951.52 170.944 3975.42 170.944H4114.68C4137.89 170.944 4156.66 172.139 4171 174.528C4185.34 176.917 4192.5 179.477 4192.5 182.208L4182.26 225.216C4173.39 224.192 4153.25 223.168 4121.85 222.144C4090.45 220.779 4048.29 220.096 3995.38 220.096L3989.75 219.584C3974.05 219.584 3963.47 222.827 3958.01 229.312C3952.55 235.456 3949.65 243.307 3949.3 252.864V261.568C3949.3 272.832 3952.38 281.365 3958.52 287.168C3965.01 292.629 3975.59 295.36 3990.26 295.36H4103.93C4125.77 295.36 4144.38 297.579 4159.74 302.016C4175.1 306.453 4186.87 314.645 4195.06 326.592C4203.26 338.197 4207.35 355.435 4207.35 378.304V386.496C4207.35 412.096 4200.7 432.747 4187.38 448.448C4174.41 464.149 4151.71 472 4119.29 472H3949.3Z" fill="#85FF8F"/>
<path d="M3959.3 482C3936.09 482 3919.03 480.976 3908.1 478.928C3897.18 476.88 3891.72 474.491 3891.72 471.76L3912.2 427.216C3920.05 428.581 3939.51 429.947 3970.57 431.312C4001.97 432.336 4044.98 432.848 4099.59 432.848H4109.32C4124 432.848 4134.41 430.288 4140.55 425.168C4146.7 419.707 4149.77 410.661 4149.77 398.032V387.792C4149.77 375.845 4147.21 367.312 4142.09 362.192C4137.31 357.072 4126.39 354.512 4109.32 354.512H3990.54C3956.06 354.512 3930.97 348.197 3915.27 335.568C3899.57 322.597 3891.72 301.605 3891.72 272.592V264.4C3891.72 249.381 3894.45 235.557 3899.91 222.928C3905.71 210.299 3915.44 200.229 3929.1 192.72C3942.75 184.869 3961.52 180.944 3985.42 180.944H4124.68C4147.89 180.944 4166.66 182.139 4181 184.528C4195.34 186.917 4202.5 189.477 4202.5 192.208L4192.26 235.216C4183.39 234.192 4163.25 233.168 4131.85 232.144C4100.45 230.779 4058.29 230.096 4005.38 230.096L3999.75 229.584C3984.05 229.584 3973.47 232.827 3968.01 239.312C3962.55 245.456 3959.65 253.307 3959.3 262.864V271.568C3959.3 282.832 3962.38 291.365 3968.52 297.168C3975.01 302.629 3985.59 305.36 4000.26 305.36H4113.93C4135.77 305.36 4154.38 307.579 4169.74 312.016C4185.1 316.453 4196.87 324.645 4205.06 336.592C4213.26 348.197 4217.35 365.435 4217.35 388.304V396.496C4217.35 422.096 4210.7 442.747 4197.38 458.448C4184.41 474.149 4161.71 482 4129.29 482H3959.3Z" fill="#680303"/>
<path d="M3969.3 492C3946.09 492 3929.03 490.976 3918.1 488.928C3907.18 486.88 3901.72 484.491 3901.72 481.76L3922.2 437.216C3930.05 438.581 3949.51 439.947 3980.57 441.312C4011.97 442.336 4054.98 442.848 4109.59 442.848H4119.32C4134 442.848 4144.41 440.288 4150.55 435.168C4156.7 429.707 4159.77 420.661 4159.77 408.032V397.792C4159.77 385.845 4157.21 377.312 4152.09 372.192C4147.31 367.072 4136.39 364.512 4119.32 364.512H4000.54C3966.06 364.512 3940.97 358.197 3925.27 345.568C3909.57 332.597 3901.72 311.605 3901.72 282.592V274.4C3901.72 259.381 3904.45 245.557 3909.91 232.928C3915.71 220.299 3925.44 210.229 3939.1 202.72C3952.75 194.869 3971.52 190.944 3995.42 190.944H4134.68C4157.89 190.944 4176.66 192.139 4191 194.528C4205.34 196.917 4212.5 199.477 4212.5 202.208L4202.26 245.216C4193.39 244.192 4173.25 243.168 4141.85 242.144C4110.45 240.779 4068.29 240.096 4015.38 240.096L4009.75 239.584C3994.05 239.584 3983.47 242.827 3978.01 249.312C3972.55 255.456 3969.65 263.307 3969.3 272.864V281.568C3969.3 292.832 3972.38 301.365 3978.52 307.168C3985.01 312.629 3995.59 315.36 4010.26 315.36H4123.93C4145.77 315.36 4164.38 317.579 4179.74 322.016C4195.1 326.453 4206.87 334.645 4215.06 346.592C4223.26 358.197 4227.35 375.435 4227.35 398.304V406.496C4227.35 432.096 4220.7 452.747 4207.38 468.448C4194.41 484.149 4171.71 492 4139.29 492H3969.3Z" fill="#F95B5B"/>
<path d="M3979.3 502C3956.09 502 3939.03 500.976 3928.1 498.928C3917.18 496.88 3911.72 494.491 3911.72 491.76L3932.2 447.216C3940.05 448.581 3959.51 449.947 3990.57 451.312C4021.97 452.336 4064.98 452.848 4119.59 452.848H4129.32C4144 452.848 4154.41 450.288 4160.55 445.168C4166.7 439.707 4169.77 430.661 4169.77 418.032V407.792C4169.77 395.845 4167.21 387.312 4162.09 382.192C4157.31 377.072 4146.39 374.512 4129.32 374.512H4010.54C3976.06 374.512 3950.97 368.197 3935.27 355.568C3919.57 342.597 3911.72 321.605 3911.72 292.592V284.4C3911.72 269.381 3914.45 255.557 3919.91 242.928C3925.71 230.299 3935.44 220.229 3949.1 212.72C3962.75 204.869 3981.52 200.944 4005.42 200.944H4144.68C4167.89 200.944 4186.66 202.139 4201 204.528C4215.34 206.917 4222.5 209.477 4222.5 212.208L4212.26 255.216C4203.39 254.192 4183.25 253.168 4151.85 252.144C4120.45 250.779 4078.29 250.096 4025.38 250.096L4019.75 249.584C4004.05 249.584 3993.47 252.827 3988.01 259.312C3982.55 265.456 3979.65 273.307 3979.3 282.864V291.568C3979.3 302.832 3982.38 311.365 3988.52 317.168C3995.01 322.629 4005.59 325.36 4020.26 325.36H4133.93C4155.77 325.36 4174.38 327.579 4189.74 332.016C4205.1 336.453 4216.87 344.645 4225.06 356.592C4233.26 368.197 4237.35 385.435 4237.35 408.304V416.496C4237.35 442.096 4230.7 462.747 4217.38 478.448C4204.41 494.149 4181.71 502 4149.29 502H3979.3Z" fill="#FCF8F8"/>
</svg>
